<svg xmlns="http://www.w3.org/2000/svg" viewBox="0 0 1985.61 2031.4"><defs><style>.cls-1{fill:#fff;}</style></defs><g id="レイヤー_2" data-name="レイヤー 2"><g id="レイヤー_1-2" data-name="レイヤー 1"><path class="cls-1" d="M1030.28,200.9a814.18,814.18,0,0,0-829.55,799.87L0,997.11A1014.74,1014.74,0,0,1,1033.94.17Z"/><path class="cls-1" d="M774.41,1794a814.14,814.14,0,0,0,1019.41-537.34L1985.61,1316A1014.74,1014.74,0,0,1,715,1985.75Z"/><path class="cls-1" d="M452.44,1403.81a684.62,684.62,0,0,0,710.91,279.65l-29.24-132a548.21,548.21,0,0,1-570.38-224.37Z"/><path class="cls-1" d="M1570.51,616.18A684.58,684.58,0,0,0,854.14,350.84L886,482.25a548.22,548.22,0,0,1,574.76,212.88Z"/><path class="cls-1" d="M1325.63,829.37a362.12,362.12,0,0,1-124,496.44l45.89,76.43a451.35,451.35,0,0,0,154.49-618.76Z"/><path class="cls-1" d="M701.24,1208.4a362.09,362.09,0,0,1,129-495.15l-45.1-76.9a451.34,451.34,0,0,0-160.8,617.15Z"/></g></g></svg>