<svg xmlns="http://www.w3.org/2000/svg" viewBox="0 0 101.31 90.2"><defs><style>.cls-1{fill:#fdfdfd;}.cls-1,.cls-2,.cls-3{stroke:#fdfdfd;stroke-linejoin:round;}.cls-1,.cls-2{stroke-width:1.63px;}.cls-2,.cls-3{fill:#65dcd0;}.cls-3{stroke-width:1.53px;}</style></defs><g id="レイヤー_2" data-name="レイヤー 2"><g id="カード付属品"><path class="cls-1" d="M5.69,39.63A4.89,4.89,0,0,0,.81,44.51v40a4.9,4.9,0,0,0,4.88,4.88H18V39.63Z"/><rect class="cls-2" x="17.99" y="39.63" width="6.6" height="49.76"/><path class="cls-1" d="M95.62,39.63a4.89,4.89,0,0,1,4.88,4.88v40a4.89,4.89,0,0,1-4.88,4.88H83.33V39.63Z"/><rect class="cls-2" x="76.73" y="39.63" width="6.6" height="49.76" transform="translate(160.05 129.02) rotate(-180)"/><path class="cls-3" d="M87.48,36.38C87.48,16.71,71.06.77,50.81.77S14.14,16.71,14.14,36.38H18.3C18.3,18.94,32.85,4.8,50.81,4.8S83.33,18.94,83.33,36.38Z"/></g></g></svg>