<svg xmlns="http://www.w3.org/2000/svg" viewBox="0 0 153.38 354.21"><defs><style>.cls-1{fill:none;}.cls-2{fill:#d8dbe2;}</style></defs><g id="レイヤー_2" data-name="レイヤー 2"><g id="下地"><polygon class="cls-1" points="76.69 0 25.56 0 0 44.28 25.56 88.55 76.69 88.55 102.25 44.28 76.69 0"/><polygon class="cls-2" points="71.85 8.39 30.41 8.39 9.69 44.28 30.41 80.17 71.85 80.17 92.57 44.28 71.85 8.39"/><polygon class="cls-1" points="127.82 88.55 76.69 88.55 51.13 132.83 76.69 177.11 127.82 177.11 153.38 132.83 127.82 88.55"/><polygon class="cls-2" points="122.97 96.94 81.53 96.94 60.81 132.83 81.53 168.72 122.97 168.72 143.69 132.83 122.97 96.94"/><polygon class="cls-1" points="76.69 177.11 25.56 177.11 0 221.38 25.56 265.66 76.69 265.66 102.25 221.38 76.69 177.11"/><polygon class="cls-2" points="71.85 185.5 30.41 185.5 9.69 221.38 30.41 257.27 71.85 257.27 92.57 221.38 71.85 185.5"/><polygon class="cls-1" points="127.82 265.66 76.69 265.66 51.13 309.94 76.69 354.21 127.82 354.21 153.38 309.94 127.82 265.66"/><polygon class="cls-2" points="122.97 274.05 81.53 274.05 60.81 309.94 81.53 345.82 122.97 345.82 143.69 309.94 122.97 274.05"/></g></g></svg>