<svg xmlns="http://www.w3.org/2000/svg" viewBox="0 0 513.71 130.25"><defs><style>.cls-1{fill:#d8dbe2;}.cls-1,.cls-2{stroke:#d8dbe2;stroke-miterlimit:10;stroke-width:5.67px;}.cls-2{fill:none;}</style></defs><g id="レイヤー_2" data-name="レイヤー 2"><g id="下地"><path class="cls-1" d="M51.42,106.76H42.7V23.49h8.72Z"/><path class="cls-1" d="M121.83,30.9H97v75.86H88.47v-76H63.62v-7.3h58.21Z"/><path class="cls-1" d="M190.49,43V87.47c0,16.68-13.08,19.29-20.71,19.29H154.09c-7.63,0-20.61-2.61-20.61-19.29V43c0-16.78,13-19.51,20.61-19.51h15.69C177.41,23.49,190.49,26.22,190.49,43ZM170,31.23H154.09c-8.4,0-11.78,3.81-11.78,11.77V87.47c0,11.66,7.85,11.77,11.78,11.77h15.8c3.92,0,11.77-.11,11.77-11.77V43C181.66,34.94,178.39,31.23,170,31.23Z"/><path class="cls-1" d="M337.29,106.76h-8.72V35.7L304.38,82.46h-7.31L273,35.7v71.06h-8.72V23.49h11.44l25.07,49.05,24.63-49.05h11.88Z"/><path class="cls-1" d="M365.84,106.76h-8.72V23.49h8.72Z"/><path class="cls-1" d="M409.22,72.1H394.4v34.66h-8.72V23.49h36.51c9.15,0,20.71,3.38,20.71,19.4v9.7c0,12-8,19-18.86,19.08,4.14,1.74,7,6.65,9,11l11.23,24.09h-9.6l-8.5-19.94C422.63,78.32,418.48,72.1,409.22,72.1Zm24.85-18.74V42.78c0-7.52-4-11.88-11.88-11.88H394.4V65.13h27.9C429.93,65.13,434.07,60.77,434.07,53.36Z"/><path class="cls-1" d="M471,106.76h-8.72V23.49H471Z"/><rect class="cls-2" x="2.83" y="2.83" width="508.04" height="124.58"/></g></g></svg>