<svg xmlns="http://www.w3.org/2000/svg" viewBox="0 0 178.94 221.38"><defs><style>.cls-1{fill:none;}.cls-2{fill:#d8dbe2;}</style></defs><g id="レイヤー_2" data-name="レイヤー 2"><g id="下地"><polygon class="cls-1" points="76.69 0 25.56 0 0 44.28 25.56 88.55 76.69 88.55 102.25 44.28 76.69 0"/><polygon class="cls-2" points="71.85 8.39 30.41 8.39 9.69 44.28 30.41 80.17 71.85 80.17 92.57 44.28 71.85 8.39"/><polygon class="cls-1" points="153.38 44.28 102.25 44.28 76.69 88.55 102.25 132.83 153.38 132.83 178.94 88.55 153.38 44.28"/><polygon class="cls-2" points="148.54 52.66 107.09 52.66 86.38 88.55 107.09 124.44 148.54 124.44 169.26 88.55 148.54 52.66"/><polygon class="cls-1" points="76.69 88.55 25.56 88.55 0 132.83 25.56 177.11 76.69 177.11 102.25 132.83 76.69 88.55"/><polygon class="cls-2" points="71.85 96.94 30.41 96.94 9.69 132.83 30.41 168.72 71.85 168.72 92.57 132.83 71.85 96.94"/><polygon class="cls-1" points="153.38 132.83 102.25 132.83 76.69 177.11 102.25 221.38 153.38 221.38 178.94 177.11 153.38 132.83"/><polygon class="cls-2" points="148.54 141.22 107.09 141.22 86.38 177.11 107.09 213 148.54 213 169.26 177.11 148.54 141.22"/></g></g></svg>