<svg xmlns="http://www.w3.org/2000/svg" viewBox="0 0 247.21 265.34"><defs><style>.cls-1{fill:#d8dbe2;}</style></defs><g id="レイヤー_2" data-name="レイヤー 2"><g id="下地"><polygon class="cls-1" points="62.16 50.89 20.72 50.89 0 86.78 20.72 122.67 62.16 122.67 82.88 86.78 62.16 50.89"/><polygon class="cls-1" points="144.32 193.56 102.88 193.56 82.16 229.45 102.88 265.34 144.32 265.34 165.04 229.45 144.32 193.56"/><polygon class="cls-1" points="226.49 50.89 185.05 50.89 164.32 86.78 185.05 122.67 226.49 122.67 247.21 86.78 226.49 50.89"/><polygon class="cls-1" points="226.49 147.67 185.05 147.67 164.32 183.56 185.05 219.45 226.49 219.45 247.21 183.56 226.49 147.67"/><polygon class="cls-1" points="62.16 147.67 20.72 147.67 0 183.56 20.72 219.45 62.16 219.45 82.88 183.56 62.16 147.67"/><polygon class="cls-1" points="144.32 0 102.88 0 82.16 35.89 102.88 71.78 144.32 71.78 165.04 35.89 144.32 0"/></g></g></svg>