<svg xmlns="http://www.w3.org/2000/svg" viewBox="0 0 511.26 88.55"><defs><style>.cls-1{fill:none;}.cls-2{fill:#d8dbe2;}</style></defs><g id="レイヤー_2" data-name="レイヤー 2"><g id="下地"><polygon class="cls-1" points="178.94 0 127.82 0 102.25 44.28 127.82 88.55 178.94 88.55 204.5 44.28 178.94 0"/><polygon class="cls-2" points="174.1 8.39 132.66 8.39 111.94 44.28 132.66 80.17 174.1 80.17 194.82 44.28 174.1 8.39"/><polygon class="cls-1" points="383.45 0 332.32 0 306.76 44.28 332.32 88.55 383.45 88.55 409.01 44.28 383.45 0"/><polygon class="cls-2" points="378.6 8.39 337.16 8.39 316.44 44.28 337.16 80.17 378.6 80.17 399.32 44.28 378.6 8.39"/><polygon class="cls-1" points="76.69 0 25.56 0 0 44.28 25.56 88.55 76.69 88.55 102.25 44.28 76.69 0"/><polygon class="cls-2" points="71.85 8.39 30.41 8.39 9.69 44.28 30.41 80.17 71.85 80.17 92.57 44.28 71.85 8.39"/><polygon class="cls-1" points="281.19 0 230.07 0 204.5 44.28 230.07 88.55 281.19 88.55 306.76 44.28 281.19 0"/><polygon class="cls-2" points="276.35 8.39 234.91 8.39 214.19 44.28 234.91 80.17 276.35 80.17 297.07 44.28 276.35 8.39"/><polygon class="cls-1" points="485.7 0 434.57 0 409.01 44.28 434.57 88.55 485.7 88.55 511.26 44.28 485.7 0"/><polygon class="cls-2" points="480.86 8.39 439.42 8.39 418.7 44.28 439.42 80.17 480.86 80.17 501.58 44.28 480.86 8.39"/></g></g></svg>