<svg xmlns="http://www.w3.org/2000/svg" xmlns:xlink="http://www.w3.org/1999/xlink" viewBox="0 0 699.5 194.93"><defs><style>.cls-1{fill:none;}.cls-2{fill:#fdfdfd;}.cls-3{fill:#d6f6ff;}.cls-4{clip-path:url(#clip-path);}.cls-5{clip-path:url(#clip-path-2);}.cls-6{clip-path:url(#clip-path-3);}</style><clipPath id="clip-path" transform="translate(3.09)"><rect class="cls-1" x="3.97" y="68.69" width="16.57" height="110.04"/></clipPath><clipPath id="clip-path-2" transform="translate(3.09)"><rect class="cls-1" x="525.02" y="68.69" width="16.57" height="110.04"/></clipPath><clipPath id="clip-path-3" transform="translate(3.09)"><rect class="cls-1" x="671.52" y="68.69" width="16.57" height="110.04"/></clipPath></defs><g id="レイヤー_2" data-name="レイヤー 2"><g id="カード文字"><rect class="cls-2" x="7.06" y="68.69" width="16.57" height="110.04"/><rect class="cls-2" x="7.06" y="68.69" width="16.57" height="110.04"/><path class="cls-2" d="M120.2,172.38c-5.08,6.13-11.27,9.19-19,9.19-14.14,0-25-10.5-25-24.5V84.44H54.79V68.91H76.22V39.15H91.91V68.91h23.43V84.44H91.91v72.63A9.12,9.12,0,0,0,108,162.76Z" transform="translate(3.09)"/><path class="cls-2" d="M484.8,178.73H469.11V105.44c0-12.91-11-23.41-23.86-23.41a23.56,23.56,0,0,0-23.65,23.41v73.29H405.91V105.44c0-12.69-10.82-23.41-23.64-23.41a23.56,23.56,0,0,0-23.65,23.41l-.44,73.29H342.49v-110h15.69v5.9a38.14,38.14,0,0,1,24.09-8.09c13,0,23.64,5.25,31.6,15.53,7.73-10.28,18.34-15.53,31.38-15.53,21.65,0,39.55,16.41,39.55,38.07Z" transform="translate(3.09)"/><path class="cls-2" d="M541.59,178.73H525v-110h16.57Z" transform="translate(3.09)"/><path class="cls-2" d="M630.86,87.06a17.47,17.47,0,0,0-13.7-6.12,18.39,18.39,0,0,0-18.34,18.37v79.42H582.69V99.31C582.69,80.06,598.16,65,617.6,65A32.89,32.89,0,0,1,643,76.34Z" transform="translate(3.09)"/><path class="cls-2" d="M688.09,178.73H671.52v-110h16.57Z" transform="translate(3.09)"/><path class="cls-2" d="M202,77.49A46.29,46.29,0,0,0,154.82,123l-11.41-.21a57.73,57.73,0,0,1,58.8-56.7Z" transform="translate(3.09)"/><path class="cls-2" d="M187.45,168.08a46.29,46.29,0,0,0,58-30.56l10.9,3.38A57.7,57.7,0,0,1,184.07,179Z" transform="translate(3.09)"/><path class="cls-2" d="M201.15,123.82Z" transform="translate(3.09)"/><path class="cls-2" d="M169.14,145.9a38.93,38.93,0,0,0,40.43,15.9l-1.67-7.51a31.15,31.15,0,0,1-32.43-12.76Z" transform="translate(3.09)"/><path class="cls-2" d="M232.72,101.1a38.78,38.78,0,0,0-25.31-15.66A38.53,38.53,0,0,0,192,86l1.81,7.47a31.19,31.19,0,0,1,32.69,12.1Z" transform="translate(3.09)"/><path class="cls-2" d="M218.79,113.23a20.56,20.56,0,0,1-1,22.71,20.34,20.34,0,0,1-6,5.52l2.6,4.35a25.68,25.68,0,0,0,8.79-35.19Z" transform="translate(3.09)"/><path class="cls-2" d="M189.58,140.83a20.5,20.5,0,0,1-5.54-5.6,20.71,20.71,0,0,1-3-7.28,20.68,20.68,0,0,1,3.14-15.7L180,109.4A25.65,25.65,0,0,0,186.73,145Z" transform="translate(3.09)"/><path class="cls-3" d="M21.51,16.18C17.36,3.24,3.75,0,3.75,0s6.81,2.61,4.64,10.5C6.82,16.17,1.21,16.85.09,26.89-.59,33,2.69,37.24,5.78,38.82a12.27,12.27,0,0,0,7,1.23C21.43,38.32,25.3,28,21.51,16.18ZM15.62,35.93A2.35,2.35,0,1,1,18,33.59,2.34,2.34,0,0,1,15.62,35.93Z" transform="translate(3.09)"/><path class="cls-3" d="M543.9,16.18C539.75,3.24,526.15,0,526.15,0s6.8,2.61,4.63,10.5c-1.57,5.67-7.18,6.35-8.3,16.39-.68,6.11,2.6,10.35,5.69,11.93a12.28,12.28,0,0,0,7,1.23C543.82,38.32,547.69,28,543.9,16.18ZM538,35.93a2.35,2.35,0,1,1,2.34-2.34A2.35,2.35,0,0,1,538,35.93Z" transform="translate(3.09)"/><path class="cls-3" d="M690.64,16.18C686.49,3.24,672.89,0,672.89,0s6.8,2.61,4.63,10.5c-1.57,5.67-7.18,6.35-8.3,16.39-.68,6.11,2.6,10.35,5.69,11.93a12.28,12.28,0,0,0,7,1.23C690.56,38.32,694.43,28,690.64,16.18Zm-5.89,19.75a2.35,2.35,0,1,1,2.35-2.34A2.34,2.34,0,0,1,684.75,35.93Z" transform="translate(3.09)"/><g class="cls-4"><rect class="cls-3" x="-3.55" y="61.71" width="32.87" height="7.7" transform="translate(-29.71 16.81) rotate(-32.02)"/><rect class="cls-3" x="-3.55" y="108.66" width="32.87" height="7.7" transform="translate(-54.61 23.96) rotate(-32.02)"/><rect class="cls-3" x="-3.55" y="85.18" width="32.87" height="7.7" transform="translate(-42.16 20.38) rotate(-32.02)"/><rect class="cls-3" x="-3.55" y="132.14" width="32.87" height="7.7" transform="translate(-67.06 27.53) rotate(-32.02)"/><rect class="cls-3" x="-3.55" y="155.62" width="32.87" height="7.7" transform="translate(-79.51 31.1) rotate(-32.02)"/><rect class="cls-3" x="-3.55" y="179.1" width="32.87" height="7.7" transform="translate(-91.96 34.67) rotate(-32.02)"/></g><rect class="cls-2" x="528.11" y="68.69" width="16.57" height="110.04"/><g class="cls-5"><rect class="cls-3" x="517.5" y="61.71" width="32.87" height="7.7" transform="translate(49.58 293.12) rotate(-32.02)"/><rect class="cls-3" x="517.5" y="108.66" width="32.87" height="7.7" transform="translate(24.68 300.26) rotate(-32.02)"/><rect class="cls-3" x="517.5" y="85.18" width="32.87" height="7.7" transform="translate(37.13 296.69) rotate(-32.02)"/><rect class="cls-3" x="517.5" y="132.14" width="32.87" height="7.7" transform="translate(12.23 303.83) rotate(-32.02)"/><rect class="cls-3" x="517.5" y="155.62" width="32.87" height="7.7" transform="translate(-0.22 307.41) rotate(-32.02)"/><rect class="cls-3" x="517.5" y="179.1" width="32.87" height="7.7" transform="translate(-12.67 310.98) rotate(-32.02)"/></g><rect class="cls-2" x="674.61" y="68.69" width="16.57" height="110.04"/><g class="cls-6"><rect class="cls-3" x="664" y="61.71" width="32.87" height="7.7" transform="translate(71.88 370.8) rotate(-32.02)"/><rect class="cls-3" x="664" y="108.66" width="32.87" height="7.7" transform="translate(46.98 377.95) rotate(-32.02)"/><rect class="cls-3" x="664" y="85.18" width="32.87" height="7.7" transform="translate(59.43 374.38) rotate(-32.02)"/><rect class="cls-3" x="664" y="132.14" width="32.87" height="7.7" transform="translate(34.53 381.52) rotate(-32.02)"/><rect class="cls-3" x="664" y="155.62" width="32.87" height="7.7" transform="translate(22.08 385.1) rotate(-32.02)"/><rect class="cls-3" x="664" y="179.1" width="32.87" height="7.7" transform="translate(9.63 388.67) rotate(-32.02)"/></g></g></g></svg>